<svg width="20" height="14" viewBox="0 0 20 14" fill="none" xmlns="http://www.w3.org/2000/svg">
<path d="M19.371 13.4075C19.3442 13.4961 19.289 13.5734 19.214 13.6276C19.1389 13.6817 19.0481 13.7096 18.9555 13.707C18.9031 13.7047 18.8516 13.6917 18.8044 13.6688C18.7572 13.6459 18.7151 13.6136 18.6808 13.5738C18.6465 13.534 18.6207 13.4877 18.605 13.4376C18.5893 13.3875 18.584 13.3347 18.5894 13.2825C18.5843 12.9139 18.5882 12.5465 18.5882 12.1622H1.28554C1.28554 12.4645 1.2868 12.764 1.28554 13.0623C1.28413 13.1666 1.2868 13.2719 1.27517 13.3749C1.26648 13.4614 1.22742 13.5421 1.16492 13.6025C1.10243 13.663 1.02054 13.6993 0.933781 13.7052C0.844616 13.7175 0.75404 13.6965 0.67933 13.6463C0.60462 13.5961 0.551004 13.5202 0.528709 13.433C0.510172 13.3617 0.501443 13.2882 0.502764 13.2145C0.501715 11.4392 0.501715 9.6643 0.502764 7.8898C0.485768 7.44982 0.618456 7.01707 0.879158 6.66223C1.13986 6.30739 1.51317 6.05143 1.93812 5.93615C2.06392 5.897 2.0787 5.83315 2.0787 5.72497C2.07619 4.6074 2.07226 3.48984 2.07745 2.37228C2.06262 1.89772 2.22078 1.43394 2.52248 1.06733C2.82418 0.700711 3.24884 0.456251 3.71739 0.379474C3.85093 0.359089 3.98599 0.350407 4.12104 0.353528C7.99616 0.350802 11.8716 0.35033 15.7473 0.352112C16.225 0.330518 16.6941 0.484438 17.0662 0.784848C17.4382 1.08526 17.6875 1.5114 17.767 1.98293C17.7904 2.13461 17.7999 2.28807 17.7957 2.44147C17.7975 3.53424 17.7969 4.62701 17.7936 5.71978C17.7936 5.84227 17.8197 5.89951 17.9487 5.93993C18.3096 6.03829 18.6338 6.24024 18.8812 6.52081C19.1287 6.80139 19.2885 7.1483 19.3409 7.5187C19.3488 7.55251 19.3606 7.58757 19.371 7.62154V13.4075ZM1.28554 9.77505H18.5699C18.5779 9.74871 18.5832 9.72163 18.5857 9.69423C18.5871 9.07435 18.5961 8.45291 18.5805 7.83429C18.5755 7.6506 18.532 7.47 18.4528 7.30421C18.3466 7.08407 18.1754 6.90188 17.9622 6.78234C17.749 6.66279 17.5042 6.61167 17.261 6.63591C12.3806 6.63727 7.49915 6.63774 2.61681 6.63732C2.58693 6.63732 2.55564 6.63591 2.5256 6.63732C2.3607 6.63082 2.19624 6.65863 2.04264 6.71897C1.88904 6.77932 1.74963 6.87089 1.63325 6.98789C1.51687 7.1049 1.42604 7.24479 1.36651 7.39871C1.30698 7.55263 1.28006 7.71723 1.28743 7.8821C1.28098 8.23245 1.28617 8.5828 1.28617 8.93189L1.28554 9.77505ZM17.0122 5.84621V5.6443C17.0122 4.57501 17.0122 3.50609 17.0122 2.43754C17.0287 2.26194 17.0061 2.08489 16.9461 1.91905C16.8861 1.7532 16.7902 1.60266 16.6653 1.47821C16.5403 1.35375 16.3894 1.25845 16.2233 1.19913C16.0572 1.1398 15.8801 1.11792 15.7046 1.13505H4.16932C3.9937 1.11785 3.81645 1.13967 3.65024 1.19894C3.48404 1.25821 3.33298 1.35348 3.20787 1.47792C3.08277 1.60237 2.9867 1.75292 2.92655 1.91881C2.8664 2.0847 2.84364 2.26183 2.85991 2.43754V5.84227H3.89288C3.87406 5.63896 3.87622 5.43424 3.89932 5.23137C4.02827 4.6453 4.16382 4.05782 4.34355 3.48591C4.40151 3.26842 4.52948 3.07606 4.70768 2.93855C4.88589 2.80105 5.10441 2.72605 5.3295 2.72514C6.24389 2.70046 7.15955 2.70565 8.07395 2.72389C8.34094 2.73633 8.59446 2.84478 8.78784 3.02929C8.98122 3.21381 9.10146 3.46196 9.12641 3.72807C9.18172 4.43286 9.17514 5.14115 9.10675 5.84479H10.7808C10.7614 5.76609 10.7483 5.68595 10.7418 5.60514C10.7366 4.99817 10.7079 4.38852 10.7431 3.78421C10.7534 3.49404 10.8775 3.2196 11.0886 3.02022C11.2997 2.82083 11.5807 2.71252 11.871 2.7187C12.7489 2.70171 13.6272 2.70255 14.506 2.72121C14.7315 2.71199 14.9536 2.77911 15.1362 2.91171C15.3188 3.04432 15.4514 3.23466 15.5124 3.45195C15.8212 4.21199 15.9762 5.02572 15.9684 5.84605L17.0122 5.84621ZM18.5792 10.5808H1.28554V11.3376H18.5791L18.5792 10.5808ZM6.48904 5.85265C6.9567 5.85265 7.42294 5.85407 7.88934 5.8514C8.20714 5.85014 8.35684 5.70547 8.35825 5.3916C8.36203 4.91231 8.36203 4.43427 8.35951 3.95498C8.35684 3.63844 8.20965 3.49519 7.89185 3.49393C7.09995 3.49246 6.30758 3.49246 5.51473 3.49393C5.45934 3.48635 5.403 3.48988 5.34898 3.5043C5.29497 3.51872 5.24437 3.54374 5.20012 3.57792C5.15588 3.61209 5.11888 3.65473 5.09128 3.70335C5.06368 3.75197 5.04604 3.8056 5.03937 3.8611C4.91682 4.34186 4.79658 4.82383 4.67865 5.307C4.65265 5.3722 4.64425 5.44308 4.6543 5.51255C4.66435 5.58202 4.69249 5.64762 4.73591 5.70277C4.77932 5.75792 4.83647 5.80069 4.90163 5.82677C4.96679 5.85286 5.03767 5.86135 5.10715 5.8514C5.5682 5.85407 6.02925 5.85265 6.48904 5.85265ZM13.3729 5.85265C13.8261 5.85265 14.2807 5.85407 14.734 5.85265C15.113 5.8514 15.2772 5.64697 15.1872 5.28483C15.0714 4.81455 14.9542 4.34522 14.8356 3.87683C14.8303 3.81796 14.8129 3.76082 14.7844 3.70903C14.7559 3.65724 14.717 3.61192 14.6701 3.57594C14.6232 3.53996 14.5694 3.51409 14.512 3.49997C14.4546 3.48586 14.3949 3.4838 14.3367 3.49393H12.0014C11.6575 3.49519 11.5139 3.63325 11.5128 3.97055C11.509 4.43695 11.5103 4.90193 11.5128 5.36817C11.5142 5.7094 11.6543 5.8514 11.9935 5.85265C12.4533 5.85407 12.9131 5.85265 13.3729 5.85265Z" fill="black"/>
</svg>
