<svg width="135" height="36" viewBox="0 0 135 36" fill="none" xmlns="http://www.w3.org/2000/svg">
<g clip-path="url(#clip0_1_2)">
<path d="M132.677 1.498L129.059 6.25947V6.33582L134.811 5.57359V8.16406L129.059 7.47818V7.55453L132.716 12.125L130.316 13.4961L128.031 8.16388H127.954L125.479 13.5342L123.308 12.1631L126.926 7.51627V7.4401L121.289 8.16406V5.57359L126.888 6.29756V6.22121L123.307 1.57435L125.631 0.241387L127.992 5.53533H128.069L130.392 0.203125L132.677 1.498Z" fill="white"/>
<path d="M2.65722 16.1367C2.06584 14.5923 1.49386 13.7055 0.940918 13.4765V13.3049H7.86325V13.4765C7.4436 13.7819 7.36708 14.2873 7.63438 14.9926L9.52242 19.9986L10.5523 16.8235L10.2948 16.1367C10.0088 15.3932 9.73224 14.7925 9.46529 14.3348C9.19799 13.8771 8.99778 13.5909 8.86466 13.4765V13.3049H15.4722V13.4765C15.0525 13.7819 14.976 14.2873 15.2435 14.9926L17.1313 19.9986L18.5043 15.8223C18.714 15.1547 18.7948 14.645 18.7474 14.2919C18.6996 13.9392 18.5043 13.6673 18.1612 13.4765V13.3049H21.279V13.4765C20.7259 13.7055 20.1535 14.5923 19.5627 16.1367L15.0717 27.7504H14.7573L11.1245 18.2823L7.46282 27.7504H7.14818L2.65722 16.1367Z" fill="white"/>
<path d="M24.1088 33.6143C23.8987 33.6143 23.6842 33.5951 23.4651 33.5572C23.2457 33.5186 23.0407 33.4522 22.8501 33.3568L22.4497 28.2079L22.6785 28.1221C23.1934 28.9609 24.0037 29.3809 25.1099 29.3809C25.7773 29.3809 26.3921 29.2187 26.9549 28.8943C27.5171 28.57 27.9132 28.141 28.1421 27.6072L28.3708 27.0637L23.9657 16.1365C23.3365 14.5921 22.7456 13.7053 22.1923 13.4762V13.3047H29.1148V13.4762C28.7144 13.7624 28.6473 14.2678 28.9144 14.9923L31.0598 20.3703L32.6044 15.822C32.8332 15.1545 32.9233 14.6448 32.8761 14.2917C32.8283 13.939 32.6423 13.667 32.3182 13.4762V13.3047H35.4362V13.4762C34.8827 13.7053 34.292 14.5921 33.6627 16.1365L27.8559 30.5533C27.4361 31.6211 26.9308 32.3984 26.3398 32.885C25.7484 33.3712 25.0049 33.6143 24.1088 33.6143Z" fill="white"/>
<path d="M45.8902 12.8757C47.1488 12.8757 48.1402 13.2094 48.8649 13.8769C49.5896 14.5444 49.9519 15.4407 49.9519 16.5654V24.5178C49.9519 25.8147 50.1995 26.6917 50.6956 27.1494V27.321H44.0593V27.1494C44.5551 26.6917 44.803 25.8147 44.803 24.5178V16.5654C44.803 15.3642 44.4312 14.7635 43.6873 14.7635C43.1533 14.7635 42.7336 15.0308 42.4288 15.5645C42.1236 16.0986 41.971 16.8139 41.971 17.7099V24.5178C41.971 25.8147 42.2186 26.6917 42.7148 27.1494V27.321H36.0784V27.1494C36.5742 26.6917 36.8221 25.8147 36.8221 24.5178V16.0223C36.8221 15.5263 36.765 15.1355 36.6506 14.8493C36.5363 14.5631 36.3454 14.2964 36.0784 14.0483V13.8767C37.4514 13.7621 38.6673 13.624 39.7257 13.4619C40.784 13.3001 41.4943 13.1045 41.8568 12.8755L42.057 12.9613L41.8854 14.9351H41.9428C42.324 14.2487 42.858 13.7335 43.5446 13.3902C44.231 13.0472 45.0128 12.8757 45.8902 12.8757Z" fill="white"/>
<path d="M52.0951 16.1367C51.5038 14.5923 50.9318 13.7055 50.3788 13.4765V13.3049H57.3012V13.4765C56.8815 13.7819 56.805 14.2873 57.0723 14.9926L58.9603 19.9986L59.9902 16.8235L59.7327 16.1367C59.4467 15.3932 59.1702 14.7925 58.9032 14.3348C58.6359 13.8771 58.4357 13.5909 58.3026 13.4765V13.3049H64.9101V13.4765C64.4904 13.7819 64.4139 14.2873 64.6814 14.9926L66.5693 19.9986L67.9423 15.8223C68.1519 15.1547 68.2327 14.645 68.1854 14.2919C68.1375 13.9392 67.9423 13.6673 67.5991 13.4765V13.3049H70.7169V13.4765C70.1638 13.7055 69.5915 14.5923 69.0006 16.1367L64.5097 27.7504H64.1952L60.5624 18.2823L56.9007 27.7504H56.5861L52.0951 16.1367Z" fill="white"/>
<path d="M77.1148 12.8757C78.5831 12.8757 79.8608 13.2005 80.9479 13.8483C82.0349 14.497 82.8831 15.3884 83.4938 16.5228C84.1039 17.6578 84.4091 18.9784 84.4091 20.4847C84.4091 21.9342 84.1133 23.2072 83.5223 24.3036C82.9309 25.4002 82.092 26.2488 81.0052 26.8494C79.9183 27.45 78.6211 27.7503 77.115 27.7503C75.6084 27.7503 74.3117 27.45 73.2249 26.8494C72.1379 26.2488 71.2984 25.4002 70.7077 24.3036C70.1163 23.207 69.8209 21.9342 69.8209 20.4847C69.8209 18.9784 70.1258 17.6578 70.7362 16.5228C71.3463 15.3884 72.1996 14.497 73.2962 13.8483C74.3923 13.2003 75.6653 12.8757 77.1148 12.8757ZM77.1148 13.8483C76.6381 13.8483 76.2611 14.0443 75.9848 14.4347C75.7082 14.8259 75.5174 15.5029 75.4126 16.4657C75.3078 17.4288 75.2553 18.7783 75.2553 20.5133C75.2553 22.1723 75.3076 23.4551 75.4126 24.3606C75.5172 25.2666 75.7032 25.8959 75.9705 26.2486C76.2373 26.6017 76.6185 26.7775 77.1147 26.7775C77.6103 26.7775 77.9915 26.6015 78.2588 26.2486C78.5256 25.8959 78.7115 25.2666 78.8165 24.3606C78.9212 23.4549 78.9741 22.1723 78.9741 20.5133C78.9741 18.7783 78.9214 17.4288 78.8165 16.4657C78.7117 15.5029 78.5258 14.8259 78.2588 14.4347C77.9917 14.0443 77.6105 13.8483 77.1148 13.8483Z" fill="white"/>
<path d="M93.2764 12.8757C94.7446 12.8757 96.0224 13.2005 97.1094 13.8483C98.1964 14.497 99.0446 15.3884 99.6554 16.5228C100.265 17.6578 100.571 18.9784 100.571 20.4847C100.571 21.9342 100.275 23.2072 99.6839 24.3036C99.0925 25.4002 98.2536 26.2488 97.1667 26.8494C96.0799 27.45 94.7827 27.7503 93.2766 27.7503C91.7699 27.7503 90.4733 27.45 89.3864 26.8494C88.2994 26.2488 87.46 25.4002 86.8693 24.3036C86.2779 23.207 85.9825 21.9342 85.9825 20.4847C85.9825 18.9784 86.2873 17.6578 86.8978 16.5228C87.5078 15.3884 88.3612 14.497 89.4578 13.8483C90.5539 13.2003 91.8269 12.8757 93.2764 12.8757ZM93.2764 13.8483C92.7996 13.8483 92.4227 14.0443 92.1465 14.4347C91.8699 14.8259 91.6792 15.5029 91.5743 16.4657C91.4695 17.4288 91.4172 18.7783 91.4172 20.5133C91.4172 22.1723 91.4695 23.4551 91.5743 24.3606C91.679 25.2666 91.865 25.8959 92.1323 26.2486C92.399 26.6017 92.7802 26.7775 93.2764 26.7775C93.7722 26.7775 94.1532 26.6015 94.4205 26.2486C94.6873 25.8959 94.8733 25.2666 94.9783 24.3606C95.0829 23.4549 95.1358 22.1723 95.1358 20.5133C95.1358 18.7783 95.0831 17.4288 94.9783 16.4657C94.8735 15.5029 94.6875 14.8259 94.4205 14.4347C94.1532 14.0443 93.772 13.8483 93.2764 13.8483Z" fill="white"/>
<path d="M102.207 20.7995C102.207 19.1402 102.517 17.72 103.136 16.5374C103.756 15.355 104.604 14.449 105.682 13.8197C106.759 13.1908 107.966 12.8759 109.301 12.8759C110.159 12.8759 110.75 12.9715 111.074 13.1621V10.0152C111.074 9.51969 111.017 9.12835 110.902 8.84271C110.788 8.55654 110.597 8.28977 110.33 8.04169V7.87013C111.703 7.75552 112.919 7.61742 113.978 7.45529C115.036 7.29352 115.746 7.09758 116.109 6.8689L116.309 6.95468C116.29 7.14563 116.27 7.44123 116.252 7.84148C116.233 8.24172 116.223 8.66172 116.223 9.10023V24.6041C116.223 25.0806 116.28 25.4668 116.395 25.7624C116.509 26.0584 116.7 26.33 116.967 26.5775V26.7491C115.594 26.8637 114.383 27.0021 113.334 27.1639C112.285 27.3257 111.57 27.5216 111.189 27.7503L110.988 27.6645L111.16 25.9198H111.103C110.855 26.4538 110.402 26.8923 109.744 27.2355C109.086 27.5787 108.347 27.7503 107.527 27.7503C106.478 27.7503 105.553 27.4595 104.752 26.8781C103.951 26.2963 103.326 25.4812 102.879 24.4323C102.431 23.3837 102.207 22.1723 102.207 20.7995ZM107.642 19.7983C107.642 21.7052 107.837 23.1784 108.228 24.2179C108.619 25.2574 109.167 25.7765 109.873 25.7765C110.502 25.7765 110.902 25.3762 111.074 24.5752V14.4776C111.036 14.2872 110.917 14.1343 110.717 14.0199C110.516 13.9058 110.283 13.8484 110.016 13.8484C109.253 13.8484 108.667 14.3541 108.256 15.3644C107.846 16.3755 107.642 17.8531 107.642 19.7983Z" fill="white"/>
<path d="M38.1818 32.228H38.5947V33.7023H40.4527V32.228H40.8655V35.7076H40.4527V34.0856H38.5947V35.7076H38.1818V32.228Z" fill="white"/>
<path d="M49.6291 35.7964C49.3638 35.7964 49.1205 35.7503 48.8993 35.6583C48.6781 35.567 48.4864 35.4398 48.3243 35.2776C48.162 35.1155 48.036 34.9221 47.9457 34.6978C47.8557 34.4731 47.8107 34.2298 47.8107 33.9676C47.8107 33.706 47.8557 33.4622 47.9457 33.238C48.036 33.0137 48.162 32.8203 48.3243 32.6582C48.4864 32.496 48.6781 32.3688 48.8993 32.277C49.1205 32.1857 49.3636 32.1394 49.6291 32.1394C49.8945 32.1394 50.1379 32.1855 50.359 32.277C50.5802 32.3688 50.7718 32.496 50.934 32.6582C51.0961 32.8203 51.2223 33.0137 51.3123 33.238C51.4024 33.4622 51.4476 33.706 51.4476 33.9676C51.4476 34.2298 51.4024 34.4731 51.3123 34.6978C51.2221 34.9221 51.0961 35.1155 50.934 35.2776C50.7718 35.4398 50.58 35.567 50.359 35.6583C50.1377 35.7501 49.8945 35.7964 49.6291 35.7964ZM49.6291 35.4131C49.8324 35.4131 50.0182 35.3752 50.187 35.2997C50.3558 35.2243 50.5008 35.1212 50.622 34.9902C50.7432 34.8589 50.8373 34.706 50.9046 34.5305C50.9717 34.3556 51.0055 34.1677 51.0055 33.9676C51.0055 33.768 50.9717 33.5802 50.9046 33.4053C50.8373 33.2298 50.7432 33.0764 50.622 32.9456C50.5008 32.8148 50.3558 32.7116 50.187 32.6361C50.0182 32.5606 49.8324 32.5227 49.6291 32.5227C49.4259 32.5227 49.2401 32.5606 49.0714 32.6361C48.9025 32.7116 48.7574 32.8146 48.6364 32.9456C48.5151 33.0764 48.4209 33.2298 48.3538 33.4053C48.2865 33.5802 48.2529 33.7681 48.2529 33.9676C48.2529 34.1677 48.2865 34.3556 48.3538 34.5305C48.4209 34.706 48.5151 34.8589 48.6364 34.9902C48.7574 35.121 48.9027 35.2243 49.0714 35.2997C49.2399 35.3752 49.4259 35.4131 49.6291 35.4131Z" fill="white"/>
<path d="M61.0027 34.3808C61.0027 34.5707 60.9788 34.7513 60.9313 34.9216C60.8838 35.0919 60.8085 35.2418 60.7053 35.3711C60.6021 35.5005 60.467 35.6041 60.2997 35.6812C60.1324 35.7582 59.9294 35.7967 59.6902 35.7967C59.451 35.7967 59.2479 35.7582 59.0806 35.6812C58.9134 35.6041 58.7783 35.5005 58.6751 35.3711C58.5718 35.2418 58.4964 35.0919 58.4489 34.9216C58.4014 34.7513 58.3777 34.5707 58.3777 34.3808V32.2283H58.7906V34.3219C58.7906 34.463 58.8053 34.5989 58.8349 34.7298C58.8644 34.8611 58.9135 34.9771 58.9824 35.0787C59.0511 35.1804 59.1429 35.2613 59.2575 35.322C59.3722 35.3831 59.5165 35.4133 59.6902 35.4133C59.8637 35.4133 60.0079 35.3831 60.1228 35.322C60.2374 35.2615 60.3293 35.1804 60.398 35.0787C60.4668 34.9771 60.5159 34.8611 60.5455 34.7298C60.575 34.5989 60.5898 34.463 60.5898 34.3219V32.2283H61.0027V34.3808Z" fill="white"/>
<path d="M69.7862 32.8424C69.7173 32.731 69.6257 32.6501 69.5109 32.5992C69.3961 32.5484 69.2765 32.5226 69.1521 32.5226C69.0605 32.5226 68.9702 32.5344 68.8818 32.557C68.7933 32.5801 68.7138 32.6145 68.6433 32.6602C68.5728 32.7063 68.5163 32.767 68.4737 32.8424C68.4312 32.9179 68.4098 33.0062 68.4098 33.1078C68.4098 33.1863 68.4221 33.256 68.4468 33.3165C68.4714 33.377 68.5114 33.432 68.5671 33.4813C68.6229 33.5306 68.6983 33.5762 68.7933 33.6189C68.8882 33.6614 69.0046 33.7041 69.1423 33.7467C69.2767 33.7892 69.407 33.8355 69.5331 33.8848C69.6593 33.9335 69.7707 33.9962 69.8674 34.0716C69.964 34.1471 70.0409 34.2409 70.0984 34.3539C70.1555 34.4673 70.1843 34.6089 70.1843 34.7792C70.1843 34.9527 70.15 35.1035 70.0811 35.2313C70.0124 35.359 69.9215 35.4648 69.8085 35.5484C69.6955 35.632 69.5652 35.6942 69.4176 35.7353C69.2701 35.7764 69.1178 35.7968 68.9606 35.7968C68.859 35.7968 68.7574 35.7876 68.6558 35.7696C68.5542 35.7516 68.4566 35.7235 68.3634 35.686C68.2699 35.6486 68.1824 35.5993 68.1005 35.5388C68.0185 35.4783 67.9482 35.4034 67.8891 35.3151L68.2431 35.0252C68.3184 35.153 68.4232 35.2494 68.5575 35.3151C68.6919 35.3808 68.8345 35.4137 68.9852 35.4137C69.0736 35.4137 69.163 35.4003 69.253 35.3742C69.3433 35.348 69.4242 35.3096 69.4963 35.2587C69.5684 35.2078 69.6273 35.1448 69.6732 35.0693C69.7191 34.9939 69.7421 34.9072 69.7421 34.8086C69.7421 34.7009 69.7239 34.613 69.688 34.5459C69.6518 34.4787 69.5963 34.4206 69.5209 34.3715C69.4454 34.3222 69.3504 34.2781 69.2358 34.2386C69.1212 34.1996 68.9868 34.1533 68.8327 34.101C68.7081 34.0615 68.5935 34.0168 68.4887 33.9661C68.3838 33.9154 68.2929 33.8527 68.216 33.7792C68.139 33.7054 68.0785 33.6166 68.0341 33.5134C67.9898 33.4101 67.9678 33.2866 67.9678 33.1423C67.9678 32.975 68.0005 32.8293 68.066 32.705C68.1315 32.5803 68.2201 32.4762 68.3313 32.3925C68.4428 32.3094 68.5689 32.2462 68.7099 32.2037C68.8506 32.1612 68.9982 32.1396 69.1521 32.1396C69.3488 32.1396 69.5282 32.1699 69.6903 32.2304C69.8526 32.2915 69.9975 32.3966 70.1252 32.5475L69.7862 32.8424Z" fill="white"/>
<path d="M77.149 32.228H79.3362V32.6114H77.5619V33.7023H79.2182V34.0856H77.5619V35.3243H79.4248V35.7076H77.1492L77.149 32.228Z" fill="white"/>
</g>
<defs>
<clipPath id="clip0_1_2">
<rect width="135" height="36" fill="white"/>
</clipPath>
</defs>
</svg>
