<svg width="18" height="18" viewBox="0 0 18 18" fill="none" xmlns="http://www.w3.org/2000/svg">
<path d="M16.1277 17.3562C16.1232 15.5814 15.4732 13.8688 14.299 12.5381C13.1247 11.2073 11.5065 10.3492 9.74611 10.1239C8.69729 9.97705 7.62887 10.0678 6.61985 10.3895C5.61083 10.7112 4.68702 11.2556 3.91672 11.9824C2.58908 13.1688 1.75398 14.8094 1.57603 16.581C1.54518 16.8384 1.5472 17.0974 1.5338 17.3563H0.181824V16.8496C0.194607 16.802 0.204238 16.7535 0.210654 16.7046C0.264917 15.8155 0.467705 14.9417 0.810601 14.1196C1.25699 13.0055 1.93143 11.9971 2.79062 11.1592C3.64981 10.3213 4.67475 9.67238 5.7996 9.2541C5.85827 9.23132 5.91492 9.20855 5.99333 9.17755C5.91852 9.12061 5.86792 9.08313 5.81906 9.04565C5.21589 8.59694 4.72359 8.01594 4.37997 7.34728C4.03635 6.67862 3.85056 5.9401 3.83686 5.18843C3.79659 4.16677 4.08487 3.15911 4.65938 2.31335C5.31076 1.30537 6.3113 0.573352 7.46913 0.25767C7.80298 0.164833 8.15153 0.12245 8.4936 0.059021H9.16793C9.43993 0.104575 9.71684 0.128937 9.98064 0.198998C10.8592 0.389666 11.667 0.822133 12.3129 1.44759C12.9587 2.07304 13.4169 2.86658 13.6357 3.73864C13.9054 4.6331 13.9089 5.58676 13.6457 6.48317C13.3825 7.37958 12.864 8.17996 12.1535 8.7866C12.0085 8.9234 11.8456 9.04233 11.6923 9.16775L11.7067 9.19053C11.7377 9.20494 11.7669 9.21936 11.7979 9.23132C13.2204 9.75348 14.4811 10.6395 15.4543 11.8011C16.4274 12.9627 17.0789 14.3591 17.3439 15.8512C17.4016 16.1817 17.4352 16.5173 17.4791 16.8496V17.3562H16.1277ZM8.82918 8.70673C9.5502 8.70687 10.2551 8.49331 10.8548 8.09302C11.4545 7.69274 11.9222 7.12368 12.1987 6.45774C12.4752 5.7918 12.5481 5.05885 12.4083 4.35146C12.2685 3.64408 11.9222 2.994 11.4132 2.48335C10.9041 1.97269 10.2551 1.62436 9.54822 1.48236C8.84131 1.34036 8.10818 1.41106 7.44143 1.68553C6.77468 1.96 6.20422 2.42592 5.80211 3.02444C5.4 3.62297 5.18429 4.32724 5.18221 5.04831C5.18273 6.01647 5.56678 6.945 6.25028 7.63065C6.93379 8.3163 7.86107 8.70323 8.82918 8.70673Z" fill="black"/>
</svg>
